<?xml version="1.0" encoding="utf-8"?>
<!-- Generator: Adobe Illustrator 24.1.2, SVG Export Plug-In . SVG Version: 6.00 Build 0)  -->
<svg version="1.1" id="Layer_1" xmlns="http://www.w3.org/2000/svg" xmlns:xlink="http://www.w3.org/1999/xlink" x="0px" y="0px"
	 viewBox="0 0 38 38" style="enable-background:new 0 0 38 38;" xml:space="preserve">
<style type="text/css">
	.st0{fill:#79AFA9;}
	.st1{fill:#F1B7A4;}
	.st2{fill:#C3B9FC;}
	.st3{fill:#F7B7B7;}
	.st4{fill:#FFFFFF;}
</style>
<path class="st0" d="M8.3,27.8c-0.6,0-1.2-0.5-1.2-1.2V11.8h22.6v8.8c0.9,0.2,1.8,0.6,2.6,1V7.9c0-2-1.6-3.5-3.5-3.5H28v1.5
	c0,1.6-1.3,2.9-2.9,2.9h-1.8c-1.6,0-2.9-1.3-2.9-2.9V4.3h-4v1.5c0,1.6-1.3,2.9-2.9,2.9h-1.8c-1.6,0-2.9-1.3-2.9-2.9V4.3H8.3
	C6.2,4.3,4.5,6,4.5,8.1v18.6c0,2.1,1.7,3.8,3.8,3.8h10.2c0-0.3,0-0.5,0-0.8c0-0.6,0.1-1.2,0.2-1.8H8.3V27.8z"/>
<g>
	<g>
		<g>
			<path class="st1" d="M14,14.4c0-0.2-0.2-0.4-0.4-0.4H9.9c-0.2,0-0.4,0.2-0.4,0.4v2c0,0.2,0.2,0.4,0.4,0.4h3.6
				c0.2,0,0.4-0.2,0.4-0.4v-2H14z"/>
			<path class="st1" d="M13.5,22.8H9.9c-0.2,0-0.4,0.2-0.4,0.4v2c0,0.2,0.2,0.4,0.4,0.4h3.6c0.2,0,0.4-0.2,0.4-0.4v-2
				C14,23,13.8,22.8,13.5,22.8z"/>
			<path class="st1" d="M23.3,16.8h3.6c0.2,0,0.4-0.2,0.4-0.4v-2c0-0.2-0.2-0.4-0.4-0.4h-3.6c-0.2,0-0.4,0.2-0.4,0.4v2
				C22.9,16.6,23.1,16.8,23.3,16.8z"/>
			<path class="st1" d="M20.7,14.4c0-0.2-0.2-0.4-0.4-0.4h-3.6c-0.2,0-0.4,0.2-0.4,0.4v2c0,0.2,0.2,0.4,0.4,0.4h3.6
				c0.2,0,0.4-0.2,0.4-0.4V14.4z"/>
			<path class="st1" d="M20.7,23.3c0-0.2-0.2-0.4-0.4-0.4h-3.6c-0.2,0-0.4,0.2-0.4,0.4v2c0,0.2,0.2,0.4,0.4,0.4h2.7
				c0.3-0.7,0.8-1.4,1.3-2V23.3z"/>
			<path class="st1" d="M14,18.8c0-0.2-0.2-0.4-0.4-0.4H9.9c-0.2,0-0.4,0.2-0.4,0.4v2c0,0.2,0.2,0.4,0.4,0.4h3.6
				c0.2,0,0.4-0.2,0.4-0.4v-2H14z"/>
			<path class="st1" d="M23.3,21.3h0.5c1.1-0.5,2.3-0.8,3.6-0.9v-1.6c0-0.3-0.2-0.5-0.5-0.5h-3.6c-0.2,0-0.4,0.2-0.4,0.5v2
				C22.9,21.1,23.1,21.3,23.3,21.3z"/>
			<path class="st1" d="M20.2,18.4h-3.6c-0.2,0-0.4,0.2-0.4,0.4v2c0,0.2,0.2,0.4,0.4,0.4h3.6c0.2,0,0.4-0.2,0.4-0.4v-2
				C20.7,18.6,20.5,18.4,20.2,18.4z"/>
		</g>
	</g>
</g>
<path class="st2" d="M11.7,6.8h1.8c0.5,0,0.9-0.4,0.9-0.9V2.2c0-0.5-0.4-0.9-0.9-0.9h-1.8c-0.5,0-0.9,0.4-0.9,0.9v3.6
	C10.8,6.4,11.2,6.8,11.7,6.8z"/>
<path class="st2" d="M23.3,6.8h1.8c0.5,0,0.9-0.4,0.9-0.9V2.2c0-0.5-0.4-0.9-0.9-0.9h-1.8c-0.5,0-0.9,0.4-0.9,0.9v3.6
	C22.4,6.4,22.8,6.8,23.3,6.8z"/>
<circle class="st3" cx="27.7" cy="29.6" r="7.1"/>
<path class="st4" d="M30.6,30.7h-2.9c-0.6,0-1-0.5-1-1v-4c0-0.6,0.5-1,1-1s1,0.5,1,1v2.9h1.9c0.6,0,1,0.5,1,1S31.2,30.7,30.6,30.7z"
	/>
</svg>
