<?xml version="1.0" encoding="utf-8"?>
<!-- Generator: Adobe Illustrator 24.1.2, SVG Export Plug-In . SVG Version: 6.00 Build 0)  -->
<svg version="1.1" id="Layer_1" xmlns="http://www.w3.org/2000/svg" xmlns:xlink="http://www.w3.org/1999/xlink" x="0px" y="0px"
	 viewBox="0 0 38 38" style="enable-background:new 0 0 38 38;" xml:space="preserve">
<style type="text/css">
	.st0{fill:#79AFA9;}
	.st1{fill:#FFFFFF;}
	.st2{fill:#F8ADAD;}
</style>
<ellipse class="st0" cx="19" cy="31.4" rx="17.2" ry="5.8"/>
<g>
	<path class="st1" d="M19,32.9L19,32.9c-0.8,0-1.5-0.3-2-0.9l-6.3-7.3c-0.3-0.4-0.7-0.8-1-1.2c-2.2-2.7-4.1-5-4.1-9.2
		c0-4,1.8-7.8,4.9-10.3s7.1-3.6,11.1-2.8C28,2.3,32.5,8,32.4,14.5c-0.1,4.3-2.2,6.8-4.7,9.7l-0.4,0.5L21,32
		C20.5,32.5,19.8,32.9,19,32.9z"/>
</g>
<path class="st2" d="M12,23.8l6.3,7.3c0.4,0.4,1,0.4,1.4,0l6.3-7.3c2.5-3,4.6-5.2,4.7-9.1C30.8,9,26.9,4.1,21.3,3
	c-7.5-1.4-14,4.2-14,11.4C7.3,18.5,9.4,20.5,12,23.8z"/>
<ellipse class="st1" cx="19" cy="14.2" rx="8.2" ry="8.2"/>
</svg>
