<?xml version="1.0" encoding="utf-8"?>
<!-- Generator: Adobe Illustrator 24.1.2, SVG Export Plug-In . SVG Version: 6.00 Build 0)  -->
<svg version="1.1" id="Layer_1" xmlns="http://www.w3.org/2000/svg" xmlns:xlink="http://www.w3.org/1999/xlink" x="0px" y="0px"
	 viewBox="0 0 38 38" style="enable-background:new 0 0 38 38;" xml:space="preserve">
<style type="text/css">
	.st0{fill:#79AFA9;}
	.st1{fill:#FFFFFF;}
	.st2{fill:#F1B7A4;}
	.st3{fill:#F8ADAD;}
	.st4{fill:#C3B9FC;}
</style>
<path class="st0" d="M24.9,1.8H5.3c-1,0-1.8,0.8-1.8,1.8v21.7c0,1,0.8,1.8,1.8,1.8H15c-0.1-0.2-0.1-0.4-0.2-0.7
	c-0.2-0.7-0.1-1.4,0.2-2l3.5-6.9c0.4-0.8,1.2-1.4,2.2-1.5h0.2h3.6c0.2-0.2,0.3-0.4,0.5-0.6c0-1.3,0.7-2.4,1.8-3V3.6
	C26.7,2.6,25.9,1.8,24.9,1.8z"/>
<path class="st1" d="M10.4,23.3H7.1c-0.5,0-1-0.4-1-1c0-0.5,0.4-1,1-1h3.3c0.5,0,1,0.4,1,1S11,23.3,10.4,23.3z"/>
<path class="st1" d="M12.5,18.1H7.1c-0.5,0-1-0.4-1-1c0-0.5,0.4-1,1-1h5.4c0.5,0,1,0.4,1,1C13.5,17.6,13.1,18.1,12.5,18.1z"/>
<path class="st1" d="M21.7,12.8h-6.3c-0.5,0-1-0.4-1-1c0-0.5,0.4-1,1-1h6.3c0.5,0,1,0.4,1,1C22.7,12.4,22.2,12.8,21.7,12.8z"/>
<path class="st1" d="M21.7,7.5h-6.3c-0.5,0-1-0.4-1-1c0-0.5,0.4-1,1-1h6.3c0.5,0,1,0.4,1,1S22.2,7.5,21.7,7.5z"/>
<g>
	<g>
		<rect x="7.2" y="7.4" class="st2" width="5.9" height="0.8"/>
		<path class="st2" d="M6.1,6.6c0,0,0.5,0,1,0c0,0,0-0.6,0.6-0.6c0,0,0.3,0,0.5,0.3c0,0.1,0.1,0.2,0.1,0.3v4.3c0,0,0.1,1.6,1.5,1.8
			c0,0,1.6,0.4,2.6-0.6c0,0,0.7-0.7,0.4-1.8c0,0-0.1-0.8-1.3-0.9c0,0-1-0.1-1.4,0.6c0,0-0.2,0.3-0.1,0.8c0,0,0.1,0.5,0.5,0.7
			l0.6-0.5c0,0-0.3-0.2-0.2-0.6c0,0,0.1-0.4,0.7-0.3c0,0,0.5,0.2,0.4,0.8c0,0,0,0.8-0.8,1.1c0,0-1.1,0.4-1.7-0.3l0,0
			c0,0-0.3-0.4-0.3-1V6.6c0-0.1,0-0.1,0-0.2c0-0.2-0.2-0.7-0.7-0.9c0,0-1.1-0.5-1.9,0.1C6.6,5.6,6.1,5.9,6.1,6.6z"/>
	</g>
</g>
<g>
	<path class="st3" d="M30.5,17.1h-9.4c-0.6,0-1.2,0.5-1.2,1.2V35c0,0.6,0.5,1.2,1.2,1.2h9.4c0.6,0,1.2-0.5,1.2-1.2V18.3
		C31.6,17.6,31.1,17.1,30.5,17.1z M24.4,18.3h2.8c0.2,0,0.4,0.2,0.4,0.4c0,0.2-0.2,0.4-0.4,0.4h-2.8c-0.2,0-0.4-0.2-0.4-0.4
		C24,18.4,24.2,18.3,24.4,18.3z M27.1,34.4c0,0.2-0.1,0.3-0.3,0.3h-1.9c-0.2,0-0.3-0.1-0.3-0.3v-0.7c0-0.2,0.1-0.3,0.3-0.3h1.9
		c0.2,0,0.3,0.1,0.3,0.3V34.4z M29.9,31.8h-8.2V20.2h8.2C29.9,20.2,29.9,31.8,29.9,31.8z"/>
</g>
<path class="st4" d="M28.1,28.3l-1-1.1C27,27,26.7,27,26.6,27.1L26,27.5c-0.3-0.4-0.6-0.7-0.8-1.2c-0.2-0.6-0.3-1-0.4-1.5l0.7-0.2
	c0.2-0.1,0.3-0.2,0.3-0.4l-0.2-1.4c0-0.2-0.3-0.4-0.5-0.4l-0.9,0.2c-0.2,0.1-0.4,0.2-0.5,0.4c-0.1,0.2-0.1,0.5-0.2,0.7
	c-0.1,0.9,0.1,2,0.6,3s1.1,1.9,1.9,2.4c0.2,0.1,0.4,0.3,0.6,0.3c0.2,0.1,0.5,0.1,0.6-0.1l0.8-0.6C28.2,28.7,28.2,28.4,28.1,28.3z"/>
</svg>
