<?xml version="1.0" encoding="utf-8"?>
<!-- Generator: Adobe Illustrator 24.1.2, SVG Export Plug-In . SVG Version: 6.00 Build 0)  -->
<svg version="1.1" id="Layer_1" xmlns="http://www.w3.org/2000/svg" xmlns:xlink="http://www.w3.org/1999/xlink" x="0px" y="0px"
	 viewBox="0 0 38 38" style="enable-background:new 0 0 38 38;" xml:space="preserve">
<style type="text/css">
	.st0{fill:#F1B7A4;}
	.st1{fill:#79AFA9;}
	.st2{fill:#C3B9FC;}
	.st3{fill:#F8ADAD;}
</style>
<path class="st0" d="M10.7,9c1.9,0,3.4-1.5,3.4-3.4s-1.5-3.4-3.4-3.4S7.3,3.7,7.3,5.6C7.3,7.5,8.8,9,10.7,9z"/>
<path class="st0" d="M15.8,13.9c0-2.2-1.8-4-4-4H9.6c-2.2,0-4,1.8-4,4v2.9h10.2V13.9z"/>
<circle class="st1" cx="27.8" cy="5.6" r="3.4"/>
<path class="st1" d="M36.6,14.1c-0.1-0.2-2.8-4.1-8.8-4.1c-3.5,0-5,2.3-6.2,3.9c-0.2,0.2-0.3,0.5-0.5,0.7c-1.1,1.5-2.6,2.8-2.7,2.8
	c-0.6,0.6-0.7,1.5-0.2,2.2c0.6,0.6,1.5,0.7,2.2,0.2c0.1-0.1,1.8-1.6,3.1-3.3c0.2-0.2,0.3-0.5,0.5-0.7v5l-1.9,4.9
	C22,25.9,22,26.1,22,26.3v6.3c0,0.9,0.8,1.7,1.7,1.7c1,0,1.7-0.8,1.7-1.7v-6l1.9-4.9H28l0.1,10.9c0,0.9,0.8,1.7,1.7,1.7l0,0
	c0.9,0,1.7-0.8,1.7-1.7l-0.1-11.5v-1.4c0.1,0.3,0.3,0.6,0.6,0.7c0.2,0.2,0.5,0.2,0.8,0.2c0.5,0,1-0.3,1.3-0.7l2.4-3.9
	C37,15.2,36.9,14.6,36.6,14.1z M31.6,18.1c0,0.1-0.1,0.2-0.1,0.2v-4.5c0.9,0.4,1.5,0.9,2,1.3L31.6,18.1z"/>
<path class="st2" d="M10.7,25.3c-0.5,0-0.9,0.4-0.9,0.9v3.1c0,0.5,0.4,0.9,0.9,0.9s0.9-0.4,0.9-0.9v-3.1
	C11.6,25.7,11.2,25.3,10.7,25.3z"/>
<path class="st2" d="M10.7,22.5c-0.6,0-1.1,0.5-1.1,1.1s0.5,1.1,1.1,1.1s1.1-0.5,1.1-1.1S11.3,22.5,10.7,22.5z"/>
<path class="st3" d="M20.4,26.1c0-0.4,0.1-0.8,0.2-1.2l1.8-4.6C22,20.7,21.7,21,21.6,21c-1.4,1.2-3.4,1-4.6-0.3
	c-0.5-0.6-0.8-1.3-0.8-2h-14c-0.6,0-1.1,0.5-1.1,1.1V33c0,0.6,0.5,1.1,1.1,1.1h18.5c-0.3-0.5-0.5-1.1-0.5-1.7L20.4,26.1z M10.7,31.7
	c-3,0-5.3-2.4-5.3-5.3c0-3,2.4-5.3,5.3-5.3c3,0,5.3,2.4,5.3,5.3C16.1,29.3,13.7,31.7,10.7,31.7z"/>
</svg>
