<?xml version="1.0" encoding="utf-8"?>
<!-- Generator: Adobe Illustrator 24.1.2, SVG Export Plug-In . SVG Version: 6.00 Build 0)  -->
<svg version="1.1" id="Layer_1" xmlns="http://www.w3.org/2000/svg" xmlns:xlink="http://www.w3.org/1999/xlink" x="0px" y="0px"
	 viewBox="0 0 38 38" style="enable-background:new 0 0 38 38;" xml:space="preserve">
<style type="text/css">
	.st0{fill:#79AFA9;}
	.st1{fill:#F1B7A4;}
	.st2{fill:#F8ADAD;}
	.st3{fill:#BEB3FD;}
</style>
<path class="st0" d="M27.3,22.9c0.5,0,0.9,0,1.4,0.1V9.8h-7.3c-0.6,0-1.1-0.5-1.1-1.1V1.4H5.9c-0.6,0-1.1,0.5-1.1,1.1V31
	c0,0.6,0.5,1.1,1.1,1.1h13.2c0-0.3,0-0.6,0-0.9C19,26.7,22.7,22.9,27.3,22.9z M10.7,7.6h5.2c0.6,0,1.1,0.5,1.1,1.1
	c0,0.6-0.5,1.1-1.1,1.1h-5.2c-0.6,0-1.1-0.5-1.1-1.1C9.7,8.1,10.1,7.6,10.7,7.6z M10.7,13.3h12c0.6,0,1.1,0.5,1.1,1.1
	s-0.5,1.1-1.1,1.1h-12c-0.6,0-1.1-0.5-1.1-1.1C9.7,13.8,10.1,13.3,10.7,13.3z M10.7,19h12c0.6,0,1.1,0.5,1.1,1.1s-0.5,1.1-1.1,1.1
	h-12c-0.6,0-1.1-0.5-1.1-1.1C9.7,19.5,10.1,19,10.7,19z M16.4,26.8h-5.6c-0.6,0-1.1-0.5-1.1-1.1s0.5-1.1,1.1-1.1h5.6
	c0.6,0,1.1,0.5,1.1,1.1C17.4,26.3,17,26.8,16.4,26.8z"/>
<path class="st1" d="M28.4,7.4l-5.7-5.7c-0.1-0.1-0.1-0.1-0.2-0.2v6.1h6.1C28.5,7.5,28.4,7.5,28.4,7.4z"/>
<path class="st2" d="M27.1,24.4c-3.4,0-6.1,2.7-6.1,6.1c0,3.2,2.4,5.8,5.5,6.1c3.7,0.4,6.8-2.5,6.8-6.1
	C33.2,27.1,30.4,24.4,27.1,24.4z"/>
<g>
	<g>
		<g>
			<rect x="24.7" y="28.8" class="st3" width="5.9" height="0.8"/>
			<g>
				<path class="st3" d="M23.6,28c0,0,0.5,0,1,0c0,0,0-0.6,0.6-0.6c0,0,0.3,0,0.5,0.3c0,0.1,0.1,0.2,0.1,0.3v4.3
					c0,0,0.1,1.6,1.5,1.8c0,0,1.6,0.4,2.6-0.6c0,0,0.7-0.7,0.4-1.8c0,0-0.1-0.8-1.3-0.9c0,0-1-0.1-1.4,0.6c0,0-0.2,0.3-0.1,0.8
					c0,0,0.1,0.5,0.5,0.7l0.6-0.5c0,0-0.3-0.2-0.2-0.6c0,0,0.1-0.4,0.7-0.3c0,0,0.5,0.2,0.4,0.8c0,0,0,0.8-0.8,1.1
					c0,0-1.1,0.4-1.7-0.3l0,0c0,0-0.3-0.4-0.3-1V28c0-0.1,0-0.1,0-0.2c0-0.2-0.2-0.7-0.7-0.9c0,0-1.1-0.5-1.9,0.1
					C24.1,27,23.6,27.3,23.6,28z"/>
			</g>
		</g>
	</g>
</g>
</svg>
