<?xml version="1.0" encoding="utf-8"?>
<!-- Generator: Adobe Illustrator 24.1.2, SVG Export Plug-In . SVG Version: 6.00 Build 0)  -->
<svg version="1.1" id="Layer_1" xmlns="http://www.w3.org/2000/svg" xmlns:xlink="http://www.w3.org/1999/xlink" x="0px" y="0px"
	 viewBox="0 0 38 38" style="enable-background:new 0 0 38 38;" xml:space="preserve">
<style type="text/css">
	.st0{fill:#79AFA9;}
	.st1{display:none;fill:#203B72;}
	.st2{fill:#F1B7A4;}
	.st3{fill:#F8ADAD;}
	.st4{fill:#C3B9FC;}
</style>
<path class="st0" d="M16.7,9.9h5.1c0,1.1,0.9,1.9,1.9,1.9c1.1,0,1.9-0.9,1.9-1.9h1.1c0.4,0,0.7-0.3,0.7-0.7V7.8c0-0.5-0.1-1-0.2-1.5
	l-0.9-2.8C26.2,3.2,25.9,3,25.7,3h-3V2c0-0.4-0.3-0.7-0.7-0.7H11.7C11.3,1.3,11,1.6,11,2v7.3c0,0.4,0.3,0.7,0.7,0.7h1.1
	c0,1.1,0.9,1.9,1.9,1.9C15.8,11.8,16.7,10.9,16.7,9.9z M23.7,10.8c-0.5,0-0.9-0.4-0.9-0.9S23.2,9,23.7,9s0.9,0.4,0.9,0.9
	C24.6,10.4,24.2,10.8,23.7,10.8z M22.6,4.2c0-0.1,0.1-0.3,0.3-0.3h2.3c0.1,0,0.2,0.1,0.3,0.2L26,5.7C26,5.8,25.9,6,25.7,6h-2.9
	c-0.1,0-0.3-0.1-0.3-0.3L22.6,4.2L22.6,4.2z M14.7,10.8c-0.5,0-0.9-0.4-0.9-0.9S14.2,9,14.7,9s0.9,0.4,0.9,0.9
	C15.7,10.4,15.2,10.8,14.7,10.8z"/>
<path class="st1" d="M11.5,24.9l-2.6,2.4v-1.9c0-0.5-0.6-0.8-1-0.4l-2.6,2.4V24c0-0.2-0.2-0.3-0.3-0.3H2.9c-0.2,0-0.3,0.1-0.3,0.3
	c-0.1,1.7-0.4,9.9-0.5,11.7c0,0.2,0.1,0.4,0.3,0.4h9.8c0.2,0,0.3-0.2,0.3-0.3V25.3C12.5,24.8,11.9,24.5,11.5,24.9z M6.7,33.7
	c0,0.1-0.1,0.3-0.3,0.3H5.2C5.1,34,5,33.9,5,33.7v-1.3c0-0.1,0.1-0.3,0.3-0.3h1.3c0.1,0,0.3,0.1,0.3,0.3v1.3H6.7z M6.7,30.7
	c0,0.1-0.1,0.3-0.3,0.3H5.2c-0.1,0-0.3-0.1-0.3-0.3v-1.3c0-0.1,0.1-0.3,0.3-0.3h1.3c0.1,0,0.3,0.1,0.3,0.3v1.3H6.7z M10.3,33.7
	c0,0.1-0.1,0.3-0.3,0.3H8.8c-0.1,0-0.3-0.1-0.3-0.3v-1.3c0-0.1,0.1-0.3,0.3-0.3h1.3c0.1,0,0.3,0.1,0.3,0.3v1.3H10.3z M10.3,30.7
	c0,0.1-0.1,0.3-0.3,0.3H8.8c-0.1,0-0.3-0.1-0.3-0.3v-1.3c0-0.1,0.1-0.3,0.3-0.3h1.3c0.1,0,0.3,0.1,0.3,0.3v1.3H10.3z"/>
<ellipse class="st2" cx="31.4" cy="26.7" rx="3" ry="3"/>
<path class="st2" d="M34.1,30.6c-0.8,0.5-1.7,0.8-2.7,0.8s-1.9-0.3-2.7-0.8c-1.3,0.5-2.3,1.7-2.3,3.3v1.6c0,0.2,0.1,0.3,0.3,0.3H36
	c0.2,0,0.3-0.1,0.3-0.3v-1.6C36.4,32.4,35.4,31.1,34.1,30.6z"/>
<path class="st3" d="M24.6,28.2h-5.1v-1c0-0.6-0.7-0.9-1.1-0.6l-2.8,1.9c-0.4,0.3-0.4,0.9,0,1.2l2.8,1.9c0.5,0.3,1.1,0,1.1-0.6v-1
	h5.1c0.5,0,0.9-0.4,0.9-0.9S25.1,28.2,24.6,28.2z"/>
<path class="st3" d="M13.8,14.2c-0.1-0.5-0.7-0.7-1.1-0.5l-2.9,1.9C9.4,16,9.4,16.7,10,16.9l0.9,0.4l-1.7,4.2c-0.2,0.5,0,1,0.5,1.2
	c0.1,0,0.2,0.1,0.3,0.1c0.4,0,0.7-0.2,0.8-0.6l1.7-4.2l0.9,0.4c0.5,0.2,1.1-0.2,1-0.8L13.8,14.2z"/>
<path class="st3" d="M25.6,14.3c-0.2-0.5-0.7-0.7-1.2-0.5C24,14,23.8,14.5,24,15l1.8,4.1l-0.9,0.4c-0.5,0.2-0.6,1-0.1,1.3l2.9,1.8
	c0.4,0.3,1,0,1.1-0.5l0.6-3.4c0.1-0.6-0.5-1-1-0.8l-0.9,0.4L25.6,14.3z"/>
<g>
	<g>
		<path class="st4" d="M7.9,27.9c0,0.2,0.2,0.4,0.4,0.4h1.6c0.2,0,0.4-0.2,0.4-0.4c0-0.2-0.2-0.4-0.4-0.4H8.3
			C8.1,27.4,7.9,27.6,7.9,27.9z"/>
		<path class="st4" d="M9.8,29.3H8.3c-0.2,0-0.4,0.2-0.4,0.4c0,0.2,0.2,0.4,0.4,0.4h1.6c0.2,0,0.4-0.2,0.4-0.4S10.1,29.3,9.8,29.3z"
			/>
		<path class="st4" d="M9.8,31.2H8.3c-0.2,0-0.4,0.2-0.4,0.4c0,0.2,0.2,0.4,0.4,0.4h1.6c0.2,0,0.4-0.2,0.4-0.4
			C10.3,31.4,10.1,31.2,9.8,31.2z"/>
		<path class="st4" d="M9.8,33.1H8.3c-0.2,0-0.4,0.2-0.4,0.4s0.2,0.4,0.4,0.4h1.6c0.2,0,0.4-0.2,0.4-0.4S10.1,33.1,9.8,33.1z"/>
		<path class="st4" d="M4.9,30.2h1.9c0.2,0,0.4-0.2,0.4-0.4v-1.9c0-0.2-0.2-0.4-0.4-0.4H4.9c-0.2,0-0.4,0.2-0.4,0.4v1.9
			C4.5,30,4.7,30.2,4.9,30.2z M5.1,28.6c0.1-0.1,0.3-0.1,0.4,0l0.2,0.2l0.6-0.6c0.1-0.1,0.3-0.1,0.4,0c0,0,0.1,0.1,0.1,0.2
			s0,0.1-0.1,0.2l0,0l-0.8,0.8c-0.1,0-0.1,0.1-0.2,0.1s-0.1,0-0.2-0.1L5.1,29C5,28.9,5,28.7,5.1,28.6z"/>
		<path class="st4" d="M4.9,34h1.9c0.2,0,0.4-0.2,0.4-0.4v-1.9c0-0.2-0.2-0.4-0.4-0.4H4.9c-0.2,0-0.4,0.2-0.4,0.4v1.9
			C4.5,33.8,4.7,34,4.9,34z M5.1,32.4c0.1-0.1,0.3-0.1,0.4,0l0.2,0.2L6.3,32c0.1-0.1,0.3-0.1,0.4,0c0,0,0.1,0.1,0.1,0.2
			c0,0.1,0,0.1-0.1,0.2l0,0l-0.8,0.8c-0.1,0-0.1,0.1-0.2,0.1s-0.1,0-0.2-0.1l-0.4-0.4C5,32.7,5,32.5,5.1,32.4z"/>
	</g>
</g>
<path class="st0" d="M12.1,25.1h-1.6v1h0.6c0.1,0,0.3,0.1,0.3,0.3v8.5c0,0.1-0.1,0.3-0.3,0.3H3.7c-0.1,0-0.3-0.1-0.3-0.3v-8.5
	c0-0.1,0.1-0.3,0.3-0.3h0.6v-1H2.7c-0.1,0-0.3,0.1-0.3,0.3v10.5c0,0.1,0.1,0.3,0.3,0.3h9.4c0.1,0,0.3-0.1,0.3-0.3V25.4
	C12.4,25.2,12.2,25.1,12.1,25.1z"/>
<path class="st0" d="M5.3,26.3h4.1c0.1,0,0.2-0.1,0.2-0.2V25c0-0.1-0.1-0.2-0.2-0.2h-1v-0.5c0-0.5-0.3-0.9-0.8-1
	c-0.7-0.1-1.2,0.4-1.2,1v0.5H5.3c-0.1,0-0.2,0.1-0.2,0.2v1.1C5.1,26.2,5.2,26.3,5.3,26.3z M7.4,23.9c0.2,0,0.4,0.2,0.4,0.4
	c0,0.2-0.2,0.4-0.4,0.4c-0.2,0-0.4-0.2-0.4-0.4S7.2,23.9,7.4,23.9z"/>
</svg>
